Normalized EMG Linear Envelopes
nRows=257
nColumns=4

endheader
time	 med_gas_r	  soleus_r	 tib_ant_r	
7.68448	  0.017449	  0.049773	  0.004610	
7.71774	  0.017625	  0.050679	  0.004561	
7.75101	  0.017822	  0.052549	  0.004527	
7.78427	  0.017976	  0.055450	  0.004523	
7.81754	  0.018080	  0.059175	  0.004546	
7.85081	  0.018097	  0.063390	  0.004579	
7.88407	  0.018058	  0.067457	  0.004615	
7.91734	  0.018016	  0.070554	  0.004653	
7.9506	  0.017997	  0.071566	  0.004686	
7.98387	  0.018003	  0.070255	  0.004711	
8.01714	  0.017987	  0.067774	  0.004748	
8.0504	  0.017891	  0.065164	  0.004804	
8.08367	  0.017744	  0.062915	  0.004874	
8.11694	  0.017611	  0.060850	  0.004944	
8.1502	  0.017553	  0.059063	  0.004977	
8.18347	  0.017551	  0.057793	  0.004959	
8.21673	  0.017577	  0.057118	  0.004886	
8.25	  0.017634	  0.056854	  0.004764	
8.28327	  0.017780	  0.056852	  0.004615	
8.31653	  0.018028	  0.056877	  0.004468	
8.3498	  0.018315	  0.056698	  0.004355	
8.38306	  0.018547	  0.055963	  0.004294	
8.41633	  0.018605	  0.054430	  0.004299	
8.4496	  0.018512	  0.052189	  0.004367	
8.48286	  0.018348	  0.049662	  0.004467	
8.51613	  0.018155	  0.047159	  0.004568	
8.5494	  0.017940	  0.044891	  0.004658	
8.58266	  0.017707	  0.043112	  0.004733	
8.61593	  0.017464	  0.041961	  0.004794	
8.64919	  0.017299	  0.041380	  0.004839	
8.68246	  0.017284	  0.041388	  0.004883	
8.71573	  0.017479	  0.042057	  0.004934	
8.74899	  0.017877	  0.043346	  0.004980	
8.78226	  0.018417	  0.045260	  0.005002	
8.81552	  0.019084	  0.047669	  0.004990	
8.84879	  0.019837	  0.050042	  0.004945	
8.88206	  0.020545	  0.051790	  0.004866	
8.91532	  0.021064	  0.052650	  0.004766	
8.94859	  0.021406	  0.052574	  0.004671	
8.98185	  0.021541	  0.051482	  0.004601	
9.01512	  0.021384	  0.049613	  0.004564	
9.04839	  0.021004	  0.047644	  0.004545	
9.08165	  0.020537	  0.046022	  0.004517	
9.11492	  0.020058	  0.044805	  0.004452	
9.14819	  0.019550	  0.043745	  0.004320	
9.18145	  0.018985	  0.042569	  0.004087	
9.21472	  0.018403	  0.041316	  0.003748	
9.24798	  0.017874	  0.040228	  0.003341	
9.28125	  0.017486	  0.039555	  0.002929	
9.31452	  0.017346	  0.039534	  0.002582	
9.34778	  0.017534	  0.040286	  0.002402	
9.38105	  0.018041	  0.041864	  0.002525	
9.41431	  0.018721	  0.044158	  0.003125	
9.44758	  0.019418	  0.046877	  0.004417	
9.48085	  0.020042	  0.049708	  0.006643	
9.51411	  0.020613	  0.052386	  0.010049	
9.54738	  0.021112	  0.054542	  0.014810	
9.58065	  0.021592	  0.055705	  0.020942	
9.61391	  0.022199	  0.056059	  0.028185	
9.64718	  0.023120	  0.056014	  0.035896	
9.68044	  0.024485	  0.055625	  0.043457	
9.71371	  0.026227	  0.054977	  0.050428	
9.74698	  0.028209	  0.054417	  0.056575	
9.78024	  0.030400	  0.054452	  0.062862	
9.81351	  0.032850	  0.055260	  0.070855	
9.84677	  0.035592	  0.056708	  0.081213	
9.88004	  0.038593	  0.058585	  0.093687	
9.91331	  0.041734	  0.060986	  0.108042	
9.94657	  0.044702	  0.064261	  0.123180	
9.97984	  0.047124	  0.068206	  0.136646	
10.0131	  0.049085	  0.072606	  0.148336	
10.0464	  0.050948	  0.077309	  0.160108	
10.0796	  0.052911	  0.082172	  0.172380	
10.1129	  0.054904	  0.086973	  0.184335	
10.1462	  0.056985	  0.091844	  0.196262	
10.1794	  0.059496	  0.096748	  0.209170	
10.2127	  0.062607	  0.101440	  0.222969	
10.246	  0.066419	  0.105389	  0.236788	
10.2792	  0.070899	  0.108356	  0.252722	
10.3125	  0.075914	  0.110398	  0.271141	
10.3458	  0.081156	  0.110787	  0.290769	
10.379	  0.086105	  0.109559	  0.311028	
10.4123	  0.089846	  0.107271	  0.329977	
10.4456	  0.091280	  0.104830	  0.344866	
10.4788	  0.090854	  0.102835	  0.354329	
10.5121	  0.089342	  0.101613	  0.359736	
10.5454	  0.087658	  0.101537	  0.363196	
10.5786	  0.086370	  0.103020	  0.367336	
10.6119	  0.085763	  0.106277	  0.374069	
10.6452	  0.085809	  0.110946	  0.384487	
10.6784	  0.086389	  0.116412	  0.399302	
10.7117	  0.087000	  0.121915	  0.417085	
10.745	  0.087450	  0.126527	  0.437166	
10.7782	  0.088319	  0.129689	  0.457498	
10.8115	  0.090131	  0.130719	  0.474851	
10.8448	  0.092955	  0.130031	  0.488080	
10.878	  0.096668	  0.128797	  0.498669	
10.9113	  0.101196	  0.127679	  0.507583	
10.9446	  0.106823	  0.127197	  0.516369	
10.9778	  0.112954	  0.127737	  0.526212	
11.0111	  0.118940	  0.129803	  0.537516	
11.0444	  0.124629	  0.133363	  0.547788	
11.0776	  0.129708	  0.137713	  0.553311	
11.1109	  0.133606	  0.141686	  0.553154	
11.1442	  0.136094	  0.144616	  0.551878	
11.1774	  0.136617	  0.146612	  0.550961	
11.2107	  0.135537	  0.148391	  0.550873	
11.244	  0.133776	  0.150957	  0.553620	
11.2772	  0.131753	  0.153999	  0.561243	
11.3105	  0.129776	  0.156565	  0.573694	
11.3437	  0.128517	  0.157918	  0.590193	
11.377	  0.128194	  0.158339	  0.609848	
11.4103	  0.128437	  0.158409	  0.630610	
11.4435	  0.129111	  0.158167	  0.648947	
11.4768	  0.130083	  0.157623	  0.660676	
11.5101	  0.130913	  0.156744	  0.664050	
11.5433	  0.131198	  0.156025	  0.657610	
11.5766	  0.130877	  0.156255	  0.642993	
11.6099	  0.130436	  0.157538	  0.625180	
11.6431	  0.130513	  0.159579	  0.607111	
11.6764	  0.131030	  0.162116	  0.590468	
11.7097	  0.131409	  0.164380	  0.576617	
11.7429	  0.131489	  0.165787	  0.566783	
11.7762	  0.131170	  0.166098	  0.560343	
11.8095	  0.130230	  0.165554	  0.557421	
11.8427	  0.128449	  0.163870	  0.557610	
11.876	  0.126248	  0.160832	  0.559836	
11.9093	  0.123966	  0.157453	  0.562746	
11.9425	  0.121952	  0.154591	  0.564817	
11.9758	  0.120147	  0.152375	  0.565884	
12.0091	  0.118490	  0.150487	  0.565228	
12.0423	  0.117365	  0.148952	  0.564072	
12.0756	  0.117031	  0.147675	  0.564937	
12.1089	  0.117604	  0.146465	  0.567919	
12.1421	  0.118916	  0.145696	  0.572095	
12.1754	  0.120416	  0.145276	  0.576220	
12.2087	  0.121472	  0.145181	  0.578612	
12.2419	  0.122019	  0.145583	  0.580140	
12.2752	  0.122673	  0.146534	  0.581459	
12.3085	  0.124198	  0.147376	  0.582159	
12.3417	  0.126733	  0.147787	  0.581278	
12.375	  0.129710	  0.147911	  0.579641	
12.4083	  0.133022	  0.148540	  0.578935	
12.4415	  0.136487	  0.150887	  0.580344	
12.4748	  0.139812	  0.155419	  0.584462	
12.5081	  0.142375	  0.161419	  0.591634	
12.5413	  0.143902	  0.167612	  0.601215	
12.5746	  0.144989	  0.173169	  0.613816	
12.6079	  0.146145	  0.177761	  0.629179	
12.6411	  0.147602	  0.181897	  0.645730	
12.6744	  0.149381	  0.185433	  0.661754	
12.7077	  0.150867	  0.187935	  0.676410	
12.7409	  0.151791	  0.189216	  0.688672	
12.7742	  0.152260	  0.189240	  0.697903	
12.8075	  0.152339	  0.188183	  0.703773	
12.8407	  0.151903	  0.187385	  0.706241	
12.874	  0.151064	  0.187562	  0.708708	
12.9073	  0.149932	  0.188470	  0.712233	
12.9405	  0.148656	  0.189349	  0.714405	
12.9738	  0.147123	  0.190127	  0.713926	
13.0071	  0.145382	  0.191612	  0.711542	
13.0403	  0.143449	  0.193624	  0.707128	
13.0736	  0.141452	  0.195038	  0.698530	
13.1069	  0.139558	  0.195061	  0.682047	
13.1401	  0.137772	  0.193529	  0.659213	
13.1734	  0.136393	  0.190398	  0.636065	
13.2067	  0.135531	  0.185953	  0.617169	
13.2399	  0.135235	  0.181754	  0.604647	
13.2732	  0.135251	  0.179314	  0.598531	
13.3065	  0.135318	  0.180004	  0.598797	
13.3397	  0.135189	  0.183442	  0.603907	
13.373	  0.134726	  0.187831	  0.610212	
13.4062	  0.133587	  0.191441	  0.611807	
13.4395	  0.131093	  0.193073	  0.603716	
13.4728	  0.127093	  0.191835	  0.584098	
13.506	  0.121811	  0.186320	  0.554118	
13.5393	  0.115898	  0.176315	  0.518580	
13.5726	  0.110279	  0.163301	  0.482932	
13.6058	  0.105065	  0.149322	  0.449599	
13.6391	  0.099674	  0.136356	  0.419841	
13.6724	  0.093685	  0.125224	  0.393399	
13.7056	  0.087190	  0.115817	  0.369722	
13.7389	  0.080660	  0.108228	  0.347320	
13.7722	  0.074638	  0.102323	  0.326137	
13.8054	  0.069649	  0.097522	  0.306542	
13.8387	  0.065613	  0.093289	  0.286496	
13.872	  0.062312	  0.089382	  0.265927	
13.9052	  0.059585	  0.085356	  0.246854	
13.9385	  0.056857	  0.080703	  0.228453	
13.9718	  0.054023	  0.075479	  0.209051	
14.005	  0.051058	  0.070407	  0.188028	
14.0383	  0.047901	  0.066057	  0.165600	
14.0716	  0.044827	  0.062761	  0.143464	
14.1048	  0.041880	  0.060600	  0.123032	
14.1381	  0.038937	  0.059525	  0.105418	
14.1714	  0.036228	  0.059494	  0.090889	
14.2046	  0.034089	  0.060276	  0.079454	
14.2379	  0.032582	  0.061568	  0.070654	
14.2712	  0.031428	  0.063110	  0.062801	
14.3044	  0.030215	  0.064521	  0.054255	
14.3377	  0.028892	  0.065527	  0.045584	
14.371	  0.027735	  0.066000	  0.038058	
14.4042	  0.026913	  0.066331	  0.032578	
14.4375	  0.026440	  0.066664	  0.029583	
14.4708	  0.026201	  0.066482	  0.029130	
14.504	  0.025958	  0.065368	  0.030769	
14.5373	  0.025542	  0.063505	  0.033649	
14.5706	  0.024925	  0.061236	  0.037238	
14.6038	  0.024253	  0.058783	  0.040854	
14.6371	  0.023649	  0.056263	  0.043627	
14.6704	  0.023189	  0.053672	  0.044295	
14.7036	  0.022942	  0.051043	  0.042754	
14.7369	  0.022894	  0.048664	  0.040254	
14.7702	  0.022958	  0.046904	  0.037893	
14.8034	  0.023129	  0.045958	  0.036326	
14.8367	  0.023512	  0.045848	  0.035740	
14.87	  0.024158	  0.046438	  0.035994	
14.9032	  0.025037	  0.047736	  0.037330	
14.9365	  0.026074	  0.049759	  0.039828	
14.9698	  0.027226	  0.052275	  0.043226	
15.003	  0.028355	  0.054982	  0.046865	
15.0363	  0.029247	  0.057544	  0.049619	
15.0696	  0.029773	  0.059360	  0.051232	
15.1028	  0.029966	  0.059897	  0.052374	
15.1361	  0.030005	  0.059174	  0.053268	
15.1694	  0.030016	  0.057678	  0.053888	
15.2026	  0.029954	  0.055858	  0.054212	
15.2359	  0.029829	  0.054209	  0.054275	
15.2692	  0.029693	  0.053178	  0.053484	
15.3024	  0.029460	  0.052924	  0.051442	
15.3357	  0.029018	  0.053538	  0.048407	
15.369	  0.028390	  0.054698	  0.044813	
15.4022	  0.027826	  0.055644	  0.041286	
15.4355	  0.027555	  0.055666	  0.038657	
15.4687	  0.027573	  0.055074	  0.037225	
15.502	  0.027751	  0.054392	  0.036511	
15.5353	  0.027894	  0.053807	  0.035704	
15.5685	  0.027906	  0.053676	  0.035035	
15.6018	  0.027929	  0.054286	  0.035165	
15.6351	  0.028023	  0.055799	  0.036240	
15.6683	  0.028043	  0.058057	  0.038004	
15.7016	  0.027942	  0.060669	  0.040086	
15.7349	  0.027792	  0.063007	  0.041776	
15.7681	  0.027766	  0.064266	  0.042551	
15.8014	  0.027965	  0.063951	  0.042579	
15.8347	  0.028317	  0.062240	  0.042105	
15.8679	  0.028702	  0.059330	  0.041206	
15.9012	  0.029066	  0.055974	  0.040120	
15.9345	  0.029314	  0.052871	  0.039235	
15.9677	  0.029380	  0.050359	  0.038836	
16.001	  0.029135	  0.048508	  0.038779	
16.0343	  0.028444	  0.047268	  0.038828	
16.0675	  0.027378	  0.046732	  0.039067	
16.1008	  0.026222	  0.047001	  0.039503	
16.1341	  0.025249	  0.048116	  0.040053	
16.1673	  0.024637	  0.049917	  0.040615	
16.2006	  0.024400	  0.052080	  0.040794	
